<?xml version="1.0" encoding="utf-8"?>
<!-- Generator: Adobe Illustrator 27.0.0, SVG Export Plug-In . SVG Version: 6.00 Build 0)  -->
<svg version="1.1" id="Layer_1" xmlns="http://www.w3.org/2000/svg" xmlns:xlink="http://www.w3.org/1999/xlink" x="0px" y="0px"
	 viewBox="0 0 2734.97 575.3" style="enable-background:new 0 0 2734.97 575.3;" xml:space="preserve">
<style type="text/css">
	.st0{fill:none;}
	.st1{fill:#1E1B52;}
	.st2{fill:#FFFFFF;}
	.st3{fill:#00C2FF;}
</style>
<polyline class="st0" points="368.75,513.26 468.48,374.87 516.41,308.41 603.7,187.23 "/>
<polyline class="st0" points="562.57,124.83 415.09,306.82 366.46,366.84 "/>
<g>
	<g>
		<g>
			<path class="st1" d="M771.44,232.25v177.92h-49.11V232.25h-67.92v-45.28h184.94v45.28H771.44z"/>
			<path class="st1" d="M1043.1,410.17l-20.41-50.06h-94.38l-20.41,50.06h-50.06l95.66-224.8h45.28l95.66,224.8H1043.1z
				 M975.51,244.36l-29.65,72.38h59.31L975.51,244.36z"/>
			<path class="st1" d="M1264.39,410.17l-47.83-71.42h-38.58v71.42h-49.1V186.97h102.03c26.57,0,47.24,6.49,62.02,19.45
				c14.77,12.97,22.16,31.04,22.16,54.2v0.64c0,18.07-4.41,32.79-13.23,44.16c-8.82,11.37-20.36,19.72-34.6,25.03l54.53,79.71
				H1264.39z M1265.35,263.17c0-10.63-3.4-18.6-10.2-23.91c-6.8-5.31-16.26-7.97-28.38-7.97h-48.79v64.09h49.74
				c12.12,0,21.41-2.87,27.9-8.61c6.48-5.74,9.72-13.39,9.72-22.96V263.17z"/>
			<path class="st1" d="M1521.23,403.64c-15.84,6.9-33.96,10.36-54.36,10.36c-17.43,0-33.32-2.87-47.67-8.61
				c-14.35-5.74-26.68-13.71-36.99-23.91c-10.31-10.2-18.34-22.32-24.07-36.35c-5.74-14.03-8.61-29.33-8.61-45.92v-0.64
				c0-15.94,2.92-30.87,8.77-44.8c5.84-13.92,13.97-26.15,24.39-36.67c10.41-10.52,22.75-18.81,36.99-24.87
				c14.24-6.06,29.86-9.09,46.87-9.09c9.99,0,19.08,0.69,27.26,2.07c8.18,1.38,15.78,3.35,22.8,5.9c7.01,2.55,13.6,5.74,19.77,9.57
				c6.16,3.83,12.12,8.19,17.86,13.07l-30.93,37.31c-4.25-3.61-8.51-6.8-12.75-9.57c-4.25-2.76-8.66-5.1-13.23-7.01
				c-4.57-1.91-9.52-3.4-14.82-4.47c-5.32-1.06-11.16-1.59-17.54-1.59c-8.93,0-17.27,1.87-25.03,5.6
				c-7.76,3.73-14.56,8.73-20.41,15.02c-5.85,6.29-10.42,13.64-13.71,22.05c-3.3,8.41-4.94,17.42-4.94,27v0.64
				c0,10.23,1.64,19.65,4.94,28.29c3.29,8.63,7.97,16.14,14.03,22.53c6.06,6.39,13.18,11.35,21.36,14.86
				c8.18,3.52,17.27,5.27,27.26,5.27c18.28,0,33.69-4.49,46.23-13.48v-32.11h-49.42v-42.41h96.93v96.93
				C1550.73,388.38,1537.07,396.73,1521.23,403.64z"/>
			<path class="st1" d="M1609.4,410.17V186.97h168.04v43.69h-119.57v45.28h105.23v43.68h-105.23v46.88h121.17v43.68H1609.4z"/>
			<path class="st1" d="M1924.12,232.25v177.92h-49.11V232.25h-67.92v-45.28h184.94v45.28H1924.12z"/>
			<path class="st1" d="M2291.44,410.17l-20.41-50.06h-94.38l-20.41,50.06h-50.06l95.66-224.8h45.28l95.66,224.8H2291.44z
				 M2223.84,244.36l-29.66,72.38h59.31L2223.84,244.36z"/>
			<path class="st1" d="M2377.22,410.17V186.97h49.1v178.88h111.28v44.32H2377.22z"/>
			<path class="st1" d="M2574.59,410.17V186.97h49.11v178.88h111.28v44.32H2574.59z"/>
		</g>
	</g>
	<path class="st3" d="M468.28,575.3H107.02C47.92,575.3,0,527.39,0,468.28V107.02C0,47.92,47.92,0,107.02,0h361.26
		C527.39,0,575.3,47.92,575.3,107.02v361.26C575.3,527.39,527.39,575.3,468.28,575.3z"/>
	<g>
		<g>
			<path class="st2" d="M340.73,295.02c-16.95,30.22-33.01,59.02-49.25,87.73c-6.17,10.91-10.35,25.56-19.8,31.25
				c-9.08,5.46-23.81,1.58-36.05,1.73c-7.12,0.09-14.24,0.02-23.22,0.02c2.84-4.89,4.6-8.06,6.49-11.16
				c29.64-48.66,59.23-97.36,89.06-145.9c3.29-5.35,3.81-9.49,0.74-15.31c-14.56-27.54-28.39-55.47-42.96-83.01
				c-3.22-6.09-3.01-10.55,0.63-16.29c7.75-12.19,14.71-24.89,22.79-38.74C349.03,208.9,408.31,311.45,468.58,415.7
				c-18.66,0-35.54,0.32-52.38-0.33c-2.67-0.1-5.88-4.11-7.64-7.03c-20.8-34.51-41.37-69.15-62.01-103.76
				C344.94,301.89,343.29,299.23,340.73,295.02z"/>
			<path class="st2" d="M237.93,193.36c9.36,15.85,17.98,30.07,26.06,44.59c1.16,2.08,0.6,6.14-0.68,8.42
				c-31.38,55.61-62.93,111.13-94.69,166.53c-1.38,2.41-5.12,4.84-7.82,4.91c-17.26,0.44-34.53,0.23-54.07,0.23
				C150.71,342.72,193.88,268.79,237.93,193.36z"/>
			<path class="st2" d="M371.47,417.53c-19.27,0-36.92,0-56.24,0c8.34-15.89,16.27-30.99,25.1-47.82
				C350.93,385.98,360.83,401.19,371.47,417.53z"/>
		</g>
	</g>
</g>
</svg>
