<?xml version="1.0" encoding="utf-8"?>
<!-- Generator: Adobe Illustrator 27.0.0, SVG Export Plug-In . SVG Version: 6.00 Build 0)  -->
<svg version="1.1" id="Layer_1" xmlns="http://www.w3.org/2000/svg" xmlns:xlink="http://www.w3.org/1999/xlink" x="0px" y="0px"
	 viewBox="0 0 1866.65 1351.03" style="enable-background:new 0 0 1866.65 1351.03;" xml:space="preserve">
<style type="text/css">
	.st0{fill:none;}
	.st1{fill:#1E1B52;}
	.st2{fill:#FFFFFF;}
	.st3{fill:#00C2FF;}
</style>
<g>
	<g>
		<path class="st2" d="M1063.37,642.01c-57.36,102.27-111.74,199.76-166.7,296.93c-20.88,36.92-35.03,86.5-67.02,105.76
			c-30.73,18.5-80.58,5.36-122.03,5.86c-24.1,0.29-48.21,0.05-78.6,0.05c9.6-16.54,15.58-27.29,21.97-37.79
			c100.33-164.69,200.47-329.5,301.44-493.81c11.13-18.11,12.91-32.13,2.5-51.82c-49.29-93.21-96.1-187.74-145.39-280.95
			c-10.89-20.6-10.2-35.7,2.15-55.12C837.94,89.86,861.49,46.88,888.83,0c202.64,350.53,403.27,697.6,607.25,1050.45
			c-63.17,0-120.29,1.07-177.28-1.1c-9.03-0.34-19.9-13.9-25.86-23.8c-70.4-116.79-140.03-234.05-209.88-351.18
			C1077.62,665.26,1072.03,656.24,1063.37,642.01z"/>
		<path class="st2" d="M715.45,297.93c31.67,53.65,60.86,101.78,88.21,150.93c3.93,7.05,2.04,20.78-2.31,28.5
			C695.13,665.58,588.37,853.5,480.86,1040.99c-4.68,8.17-17.33,16.4-26.48,16.63c-58.4,1.5-116.86,0.76-183,0.76
			C420.24,803.46,566.37,553.22,715.45,297.93z"/>
		<path class="st2" d="M1167.42,1056.63c-65.23,0-124.96,0-190.35,0c28.23-53.78,55.06-104.88,84.96-161.85
			C1097.89,949.85,1131.42,1001.34,1167.42,1056.63z"/>
	</g>
	<g>
		<path class="st2" d="M104.99,1187.96v159.63H60.94v-159.63H0v-40.63h165.93v40.63H104.99z"/>
		<path class="st2" d="M348.73,1347.59l-18.31-44.91h-84.68l-18.31,44.91h-44.91l85.82-201.68h40.62l85.82,201.68H348.73z
			 M288.08,1198.83l-26.61,64.94h53.21L288.08,1198.83z"/>
		<path class="st2" d="M547.27,1347.59l-42.91-64.08h-34.62v64.08h-44.06v-200.26h91.54c23.84,0,42.39,5.82,55.64,17.45
			c13.26,11.63,19.88,27.85,19.88,48.63v0.57c0,16.21-3.96,29.42-11.87,39.62c-7.91,10.2-18.26,17.69-31.04,22.46l48.92,71.52
			H547.27z M548.12,1215.71c0-9.54-3.05-16.69-9.15-21.46c-6.1-4.77-14.59-7.15-25.46-7.15h-43.77v57.5h44.63
			c10.87,0,19.21-2.57,25.03-7.72c5.82-5.15,8.72-12.02,8.72-20.6V1215.71z"/>
		<path class="st2" d="M777.7,1341.73c-14.21,6.19-30.47,9.3-48.77,9.3c-15.64,0-29.89-2.58-42.77-7.73
			c-12.87-5.15-23.94-12.3-33.19-21.46c-9.25-9.15-16.45-20.03-21.6-32.61c-5.15-12.58-7.72-26.32-7.72-41.19v-0.57
			c0-14.3,2.62-27.7,7.87-40.19c5.24-12.49,12.54-23.46,21.89-32.9c9.34-9.44,20.41-16.88,33.19-22.31
			c12.78-5.43,26.79-8.15,42.05-8.15c8.96,0,17.12,0.62,24.46,1.86c7.34,1.24,14.16,3,20.45,5.29c6.29,2.29,12.2,5.15,17.74,8.58
			c5.53,3.43,10.87,7.34,16.02,11.73l-27.75,33.47c-3.82-3.24-7.63-6.1-11.44-8.58c-3.82-2.48-7.77-4.58-11.87-6.29
			c-4.1-1.72-8.54-3.05-13.3-4.01c-4.77-0.95-10.01-1.43-15.74-1.43c-8.01,0-15.5,1.68-22.46,5.02
			c-6.96,3.34-13.06,7.84-18.31,13.47c-5.25,5.64-9.35,12.24-12.3,19.79c-2.96,7.55-4.44,15.63-4.44,24.23v0.57
			c0,9.18,1.48,17.63,4.44,25.38c2.95,7.74,7.15,14.48,12.59,20.21c5.43,5.74,11.82,10.18,19.17,13.33
			c7.34,3.15,15.49,4.73,24.46,4.73c16.4,0,30.22-4.03,41.48-12.1v-28.81h-44.34v-38.05h86.97v86.97
			C804.16,1328.04,791.9,1335.53,777.7,1341.73z"/>
		<path class="st2" d="M856.8,1347.59v-200.26h150.76v39.19H900.28v40.62h94.41v39.19h-94.41v42.06h108.71v39.19H856.8z"/>
		<path class="st2" d="M1139.16,1187.96v159.63h-44.06v-159.63h-60.93v-40.63h165.93v40.63H1139.16z"/>
		<path class="st2" d="M1468.71,1347.59l-18.31-44.91h-84.68l-18.31,44.91h-44.91l85.82-201.68h40.63l85.82,201.68H1468.71z
			 M1408.07,1198.83l-26.61,64.94h53.21L1408.07,1198.83z"/>
		<path class="st2" d="M1545.67,1347.59v-200.26h44.06v160.49h99.84v39.76H1545.67z"/>
		<path class="st2" d="M1722.75,1347.59v-200.26h44.06v160.49h99.84v39.76H1722.75z"/>
	</g>
</g>
</svg>
